<svg width="104" height="104" viewBox="0 0 104 104" fill="none" xmlns="http://www.w3.org/2000/svg">
<path d="M94.9192 57.2471L99.3296 55.8548C99.4738 55.8058 99.6458 55.7609 99.8455 55.7202C99.7517 55.6889 99.662 55.6558 99.5764 55.6211C99.4948 55.5868 99.4193 55.5508 99.35 55.5134L95.2119 53.4603L94.9192 57.2471ZM91.6996 58.8818L91.7362 58.4092C91.7405 58.3534 91.758 58.3086 91.7887 58.2748C91.8234 58.2414 91.8654 58.2166 91.9148 58.2003L94.4502 57.3974L94.7716 53.2398L92.3897 52.0567C92.3471 52.0373 92.3113 52.0065 92.2825 51.9641C92.2537 51.9218 92.2414 51.8727 92.2458 51.8169L92.2818 51.3502L100.479 55.4682L100.432 56.0724L91.6996 58.8818Z" fill="#AB1401"/>
<path d="M91.4935 65.1086C91.4837 65.1474 91.4619 65.177 91.4279 65.1973L91.1193 65.3674C90.9798 65.1509 90.8615 64.9234 90.7647 64.6846C90.6707 64.4508 90.6016 64.2004 90.5571 63.9336C90.5156 63.6716 90.5036 63.3903 90.5213 63.0896C90.5341 62.7917 90.5833 62.4721 90.6689 62.1307C90.8119 61.5603 91.0422 61.0613 91.3597 60.6337C91.6801 60.211 92.0655 59.8746 92.5158 59.6246C92.97 59.3756 93.4809 59.2212 94.0485 59.1614C94.6151 59.1055 95.2165 59.1573 95.8528 59.3169C96.4775 59.4735 97.0235 59.7135 97.4909 60.0368C97.9583 60.3602 98.3325 60.7427 98.6136 61.1843C98.8985 61.6269 99.0805 62.1179 99.1597 62.6574C99.2428 63.1978 99.2104 63.7629 99.0626 64.3526C98.9215 64.9152 98.7092 65.3919 98.4257 65.7827C98.1421 66.1734 97.7965 66.5074 97.3889 66.7846L97.1722 66.5385C97.1334 66.4958 97.1223 66.4415 97.1389 66.3755C97.1505 66.329 97.2122 66.264 97.3238 66.1806C97.4354 66.0973 97.565 65.9751 97.7126 65.8142C97.864 65.6542 98.0175 65.4453 98.1729 65.1873C98.3273 64.9332 98.4531 64.6122 98.5504 64.2242C98.6749 63.7276 98.7039 63.2503 98.6372 62.7923C98.5696 62.3383 98.4142 61.922 98.1709 61.5435C97.9267 61.1688 97.5966 60.8407 97.1806 60.5591C96.7646 60.2774 96.2714 60.0651 95.7011 59.9221C95.1191 59.7762 94.5783 59.7293 94.0786 59.7813C93.578 59.8373 93.1316 59.9728 92.7395 60.1879C92.3513 60.404 92.0218 60.6904 91.7509 61.0473C91.4829 61.4089 91.2905 61.8226 91.1738 62.2882C91.0998 62.583 91.0536 62.8498 91.035 63.0884C91.0154 63.331 91.0201 63.559 91.0491 63.7724C91.078 63.9859 91.1279 64.1901 91.1986 64.3852C91.2692 64.5802 91.3598 64.7782 91.4703 64.9791C91.4809 65.0024 91.4877 65.0247 91.4906 65.046C91.4974 65.0683 91.4983 65.0892 91.4935 65.1086Z" fill="#AB1401"/>
<path d="M90.3562 74.4896C89.762 74.2117 89.2636 73.8705 88.8611 73.4659C88.4622 73.063 88.1661 72.6198 87.9726 72.1364C87.7828 71.6546 87.6996 71.1432 87.723 70.6022C87.7483 70.0665 87.8881 69.5269 88.1422 68.9834C88.3964 68.4398 88.7209 67.9866 89.1158 67.6237C89.5143 67.2626 89.9593 67.0004 90.4507 66.8371C90.9457 66.6756 91.4757 66.6188 92.0406 66.6666C92.6092 66.7161 93.1906 66.8798 93.7848 67.1576C94.3754 67.4338 94.8702 67.7734 95.2691 68.1763C95.6716 68.5809 95.9677 69.024 96.1575 69.5058C96.351 69.9892 96.4368 70.4997 96.4151 71.0371C96.3935 71.5745 96.2555 72.1149 96.0014 72.6585C95.7472 73.202 95.4209 73.6543 95.0224 74.0155C94.6258 74.382 94.18 74.646 93.6849 74.8076C93.1899 74.9691 92.6581 75.0251 92.0896 74.9756C91.5246 74.9278 90.9469 74.7658 90.3562 74.4896ZM90.6256 73.9135C91.1619 74.1642 91.6786 74.3153 92.1756 74.3667C92.6726 74.4181 93.1332 74.3774 93.5574 74.2445C93.9816 74.1117 94.3606 73.8915 94.6943 73.5839C95.0316 73.278 95.3079 72.895 95.5231 72.4348C95.7366 71.9782 95.8526 71.5225 95.871 71.0675C95.8932 70.6141 95.82 70.1803 95.6517 69.766C95.4816 69.3553 95.2184 68.9739 94.862 68.6218C94.5039 68.2733 94.0568 67.9737 93.5205 67.7229C92.9806 67.4704 92.4621 67.3185 91.9651 67.2671C91.47 67.2211 91.0104 67.2644 90.5862 67.3973C90.1603 67.5337 89.7805 67.7557 89.4467 68.0633C89.113 68.3709 88.8394 68.753 88.6259 69.2095C88.4107 69.6697 88.2921 70.1265 88.27 70.5798C88.2479 71.0331 88.3219 71.4651 88.4919 71.8758C88.6619 72.2865 88.9242 72.6652 89.2787 73.012C89.6368 73.3605 90.0858 73.661 90.6256 73.9135Z" fill="#AB1401"/>
<path d="M92.1185 78.342L89.1936 76.2951L86.9747 79.4658L86.5568 79.1733L88.7758 76.0027L85.5806 73.7665L85.9349 73.2602L92.8907 78.1281L89.9734 82.2967L89.5555 82.0043L92.1185 78.342Z" fill="#AB1401"/>
<path d="M82.0467 78.3775L82.4542 77.9129L88.8371 83.5109L88.4296 83.9755L82.0467 78.3775Z" fill="#AB1401"/>
<path d="M79.6659 92.085L74.1849 85.6013L74.5927 85.2565L79.2642 90.7826C79.3313 90.862 79.3977 90.9499 79.4635 91.0462L78.1848 84.357C78.1604 84.2414 78.1879 84.15 78.2674 84.0829L78.3407 84.0209C78.4201 83.9538 78.5148 83.9418 78.6247 83.9851L85.0843 86.3103C84.9977 86.2264 84.9195 86.1432 84.8498 86.0608L80.1783 80.5347L80.5907 80.1861L86.0717 86.6698L85.7464 86.9448C85.7036 86.981 85.6662 87.0048 85.634 87.0163C85.6018 87.0278 85.5567 87.024 85.4987 87.005L79.0707 84.7079C78.9526 84.6611 78.8354 84.6031 78.7192 84.5337C78.7422 84.5981 78.7624 84.6622 78.7797 84.7261C78.7996 84.7931 78.8155 84.8583 78.8272 84.9217L80.0918 91.5757C80.1009 91.6361 80.0971 91.6812 80.0804 91.711C80.0607 91.7434 80.0294 91.7777 79.9867 91.8138L79.6659 92.085Z" fill="#AB1401"/>
<path d="M71.0282 90.7449L74.6455 93.6268C74.7667 93.719 74.9 93.8366 75.0453 93.9796C75.0188 93.8842 74.9961 93.7914 74.9772 93.701C74.9601 93.6141 74.9478 93.5315 74.9402 93.453L74.3333 88.8737L71.0282 90.7449ZM67.8745 88.9864L68.287 88.7529C68.3358 88.7253 68.3827 88.7148 68.4278 88.7214C68.4749 88.7315 68.519 88.7526 68.56 88.7845L70.6417 90.4397L74.2705 88.3852L73.9223 85.7486C73.9145 85.7024 73.9202 85.6556 73.9392 85.608C73.9582 85.5605 73.9921 85.5229 74.0409 85.4953L74.4481 85.2647L75.6078 94.3644L75.0805 94.6629L67.8745 88.9864Z" fill="#AB1401"/>
<path d="M59.4504 94.5776L62.1126 98.3595C62.203 98.4821 62.2978 98.6324 62.3971 98.8104C62.3985 98.7115 62.4028 98.616 62.41 98.5239C62.4181 98.4357 62.4295 98.3529 62.4442 98.2755L63.148 93.7101L59.4504 94.5776ZM56.9177 92.004L57.3791 91.8958C57.4336 91.883 57.4816 91.8861 57.5231 91.9051C57.5654 91.9281 57.6018 91.9606 57.6323 92.0028L59.1652 94.1761L63.2249 93.2237L63.6314 90.5954C63.6369 90.5489 63.6555 90.5055 63.6871 90.4652C63.7188 90.4249 63.7618 90.3983 63.8164 90.3856L64.272 90.2787L62.8289 99.3377L62.239 99.4761L56.9177 92.004Z" fill="#AB1401"/>
<path d="M50.3692 96.1512L50.183 93.1389C50.5877 92.8133 51.0246 92.5559 51.4938 92.3666C51.9631 92.1773 52.4971 92.0641 53.096 92.0271C53.7667 91.9856 54.3758 92.0502 54.9234 92.2207C55.4712 92.3953 55.9463 92.6584 56.3488 93.0103C56.7475 93.3664 57.0652 93.8056 57.3019 94.328C57.5346 94.8506 57.6712 95.4393 57.7116 96.0941C57.7521 96.7488 57.6909 97.3478 57.5281 97.8908C57.3616 98.4381 57.1063 98.9108 56.7622 99.3088C56.4143 99.711 55.9852 100.03 55.4748 100.266C54.9646 100.506 54.3821 100.646 53.7274 100.687C53.404 100.707 53.1052 100.703 52.831 100.676C52.5528 100.649 52.2932 100.599 52.0523 100.526C51.8115 100.456 51.5854 100.364 51.3739 100.249C51.1626 100.138 50.9581 100.006 50.7604 99.8541L50.9118 99.5802C50.9617 99.481 51.0442 99.4538 51.1592 99.4988C51.2206 99.5191 51.3099 99.5696 51.4271 99.6506C51.5443 99.7315 51.7037 99.8138 51.9052 99.8975C52.1068 99.9813 52.3556 100.052 52.6518 100.11C52.9439 100.168 53.2976 100.184 53.7128 100.159C54.2637 100.124 54.7573 100.006 55.1936 99.8025C55.6259 99.5994 55.9897 99.3245 56.2848 98.9776C56.576 98.631 56.7929 98.2168 56.9354 97.7351C57.074 97.2536 57.1251 96.7195 57.0888 96.1326C57.0521 95.5377 56.9352 95.0079 56.7381 94.5432C56.5371 94.0787 56.2666 93.6907 55.9267 93.379C55.5829 93.0677 55.176 92.8383 54.706 92.691C54.236 92.5437 53.7136 92.4879 53.1387 92.5234C52.8871 92.539 52.6566 92.5692 52.4469 92.6143C52.2333 92.6595 52.0324 92.716 51.8442 92.7838C51.6523 92.8557 51.4691 92.9392 51.2946 93.0341C51.1164 93.1333 50.9368 93.2426 50.7558 93.362L50.8969 95.6436L52.5198 95.5433C52.5637 95.5406 52.6025 95.5523 52.6362 95.5782C52.6658 95.6044 52.6818 95.6355 52.684 95.6715L52.7047 96.0068L50.3692 96.1512Z" fill="#AB1401"/>
<path d="M41.9318 94.2023L42.9121 98.7222C42.9476 98.8703 42.9765 99.0457 42.9987 99.2483C43.0385 99.1577 43.0796 99.0714 43.1221 98.9894C43.1638 98.9113 43.2065 98.8395 43.2502 98.7739L45.6755 94.8424L41.9318 94.2023ZM40.6005 90.8459L41.0677 90.9258C41.1229 90.9352 41.1659 90.9568 41.1966 90.9905C41.2267 91.0281 41.2476 91.0722 41.2592 91.1229L41.8254 93.7215L45.9357 94.4243L47.3331 92.1614C47.3563 92.1207 47.3903 92.088 47.4351 92.0632C47.4799 92.0384 47.5299 92.0307 47.5851 92.0402L48.0464 92.119L43.1912 99.9021L42.5939 99.8L40.6005 90.8459Z" fill="#AB1401"/>
<path d="M34.3939 90.0277C34.3562 90.0143 34.3288 89.9898 34.3118 89.9541L34.1716 89.6308C34.4003 89.5123 34.638 89.4161 34.8848 89.3422C35.1265 89.2707 35.3822 89.2255 35.6521 89.2064C35.9168 89.1898 36.198 89.2044 36.4957 89.2504C36.791 89.2913 37.1046 89.3704 37.4364 89.4879C37.9907 89.6841 38.4657 89.9604 38.8615 90.3169C39.2521 90.6758 39.5506 91.0912 39.757 91.5631C39.962 92.0388 40.0675 92.5619 40.0734 93.1326C40.0756 93.702 39.9672 94.2958 39.7483 94.9143C39.5334 95.5213 39.243 96.0423 38.8769 96.4771C38.5109 96.9118 38.0948 97.2483 37.6286 97.4864C37.1611 97.7283 36.6551 97.8632 36.1106 97.8911C35.5648 97.9228 35.0053 97.8372 34.4321 97.6343C33.8853 97.4408 33.4308 97.1845 33.0685 96.8653C32.7063 96.5461 32.4064 96.1705 32.1689 95.7386L32.4344 95.5461C32.4806 95.5115 32.5357 95.5056 32.5998 95.5283C32.645 95.5443 32.7039 95.6118 32.7763 95.7308C32.8488 95.8498 32.9582 95.9903 33.1045 96.1524C33.2494 96.3183 33.443 96.4908 33.6851 96.6698C33.9235 96.8475 34.2312 97.0031 34.6083 97.1366C35.0909 97.3074 35.5634 97.3813 36.0256 97.3582C36.484 97.3337 36.9131 97.2183 37.3129 97.0118C37.7089 96.8041 38.0667 96.5064 38.3863 96.1188C38.706 95.7313 38.9639 95.2604 39.1601 94.706C39.3603 94.1404 39.458 93.6065 39.4534 93.1041C39.445 92.6004 39.3522 92.1433 39.175 91.7326C38.9966 91.3258 38.7425 90.9707 38.4128 90.6673C38.0781 90.3663 37.6844 90.1358 37.2319 89.9756C36.9454 89.8742 36.6842 89.803 36.4483 89.7619C36.2087 89.7195 35.9813 89.7027 35.7661 89.7114C35.5509 89.7201 35.3428 89.7504 35.142 89.8024C34.9411 89.8543 34.7355 89.9258 34.5251 90.0168C34.5009 90.0252 34.478 90.0299 34.4565 90.0307C34.4336 90.0354 34.4128 90.0344 34.3939 90.0277Z" fill="#AB1401"/>
<path d="M25.2008 88.0098C25.5345 87.4449 25.922 86.9816 26.3634 86.6198C26.8027 86.2615 27.2723 86.0092 27.7721 85.8631C28.2698 85.7205 28.7868 85.6868 29.3231 85.762C29.8539 85.8386 30.3776 86.0295 30.8942 86.3347C31.4108 86.6399 31.8308 87.0064 32.1541 87.4343C32.4753 87.8657 32.6936 88.3338 32.8089 88.8386C32.9221 89.3468 32.9278 89.8798 32.826 90.4376C32.7221 90.9987 32.5033 91.5617 32.1697 92.1265C31.8381 92.6879 31.4526 93.1478 31.0132 93.5061C30.5719 93.8679 30.1023 94.1202 29.6045 94.2628C29.1048 94.4089 28.5884 94.4454 28.0556 94.3722C27.5227 94.299 26.998 94.1098 26.4814 93.8046C25.9648 93.4995 25.5459 93.1312 25.2247 92.6998C24.8979 92.2699 24.6779 91.8008 24.5647 91.2925C24.4515 90.7843 24.4468 90.2496 24.5506 89.6884C24.6525 89.1307 24.8692 88.5711 25.2008 88.0098ZM25.7484 88.3332C25.4473 88.8429 25.2473 89.3427 25.1485 89.8325C25.0496 90.3223 25.0459 90.7847 25.1374 91.2197C25.2288 91.6547 25.4116 92.053 25.6858 92.4147C25.9579 92.7799 26.3126 93.0917 26.75 93.35C27.1839 93.6064 27.6265 93.7656 28.0776 93.8277C28.5267 93.8932 28.9655 93.8621 29.3941 93.7343C29.8192 93.6045 30.2241 93.3791 30.6089 93.0582C30.9901 92.7352 31.3313 92.3189 31.6324 91.8092C31.9356 91.296 32.1366 90.7945 32.2354 90.3047C32.3288 89.8163 32.3298 89.3547 32.2383 88.9197C32.1434 88.4826 31.9589 88.0833 31.6847 87.7216C31.4106 87.3598 31.0566 87.0508 30.6226 86.7945C30.1853 86.5361 29.742 86.3741 29.2929 86.3086C28.8438 86.2431 28.4067 86.2752 27.9816 86.405C27.5565 86.5348 27.1543 86.7595 26.775 87.0791C26.3938 87.402 26.0516 87.8201 25.7484 88.3332Z" fill="#AB1401"/>
<path d="M21.2791 89.4705L23.5839 86.7442L20.6284 84.2458L20.9577 83.8563L23.9131 86.3547L26.4309 83.3763L26.9029 83.7753L21.4219 90.259L17.5362 86.9742L17.8655 86.5848L21.2791 89.4705Z" fill="#AB1401"/>
<path d="M22.1682 79.4383L22.594 79.8863L16.4399 85.735L16.0142 85.287L22.1682 79.4383Z" fill="#AB1401"/>
<path d="M8.74468 75.8244L15.7005 70.9565L16.0067 71.394L10.0783 75.5429C9.99305 75.6025 9.89949 75.6607 9.79757 75.7174L16.5755 75.053C16.6928 75.0393 16.7813 75.075 16.8409 75.1602L16.8959 75.2389C16.9556 75.3241 16.9588 75.4194 16.9057 75.525L14.002 81.7461C14.0935 81.6674 14.1834 81.5971 14.2719 81.5352L20.2003 77.3863L20.5099 77.8287L13.5541 82.6966L13.3099 82.3476C13.2778 82.3017 13.2575 82.2623 13.249 82.2292C13.2404 82.1961 13.2483 82.1515 13.2726 82.0955L16.1453 75.9034C16.2026 75.79 16.2711 75.6786 16.3508 75.5691C16.2846 75.5862 16.2189 75.6004 16.1537 75.6119C16.0852 75.6256 16.0188 75.6355 15.9546 75.6413L9.21307 76.2949C9.15212 76.2985 9.10755 76.2906 9.07937 76.2713C9.0489 76.2486 9.01761 76.2144 8.9855 76.1685L8.74468 75.8244Z" fill="#AB1401"/>
<path d="M10.8698 67.3036L7.65322 70.6269C7.54972 70.7386 7.41982 70.8599 7.26353 70.9908C7.361 70.9737 7.45562 70.96 7.5474 70.9498C7.63553 70.9412 7.71899 70.9369 7.79778 70.9369L12.4143 70.7734L10.8698 67.3036ZM12.9235 64.3338L13.1163 64.7668C13.1391 64.818 13.145 64.8657 13.134 64.91C13.1194 64.9559 13.0943 64.9977 13.0586 65.0355L11.2107 66.9483L12.9065 70.7579L15.5644 70.665C15.6111 70.6617 15.6572 70.6718 15.7027 70.6954C15.7482 70.7189 15.7824 70.7563 15.8051 70.8074L15.9954 71.235L6.82642 71.5138L6.57998 70.9601L12.9235 64.3338Z" fill="#AB1401"/>
<path d="M8.13851 55.4981L4.12856 57.8026C3.99819 57.8814 3.83982 57.962 3.65345 58.0446C3.75184 58.0551 3.84655 58.0681 3.93758 58.0837C4.02464 58.0998 4.10604 58.1187 4.18177 58.1405L8.66351 59.2597L8.13851 55.4981ZM10.9333 53.2119L10.9988 53.6813C11.0066 53.7368 10.9991 53.7843 10.9763 53.8238C10.9496 53.8639 10.9138 53.8971 10.8691 53.9236L8.56442 55.2509L9.14085 59.3809L11.7209 60.0264C11.7666 60.0362 11.8081 60.0587 11.8454 60.0939C11.8826 60.129 11.9051 60.1744 11.9128 60.2298L11.9775 60.6933L3.08879 58.4263L3.00502 57.8261L10.9333 53.2119Z" fill="#AB1401"/>
<path d="M7.42269 46.0885L10.4389 46.1933C10.724 46.6274 10.9381 47.0872 11.0814 47.5724C11.2246 48.0577 11.2858 48.6001 11.265 49.1998C11.2416 49.8714 11.1187 50.4715 10.8962 51.0001C10.6697 51.5285 10.362 51.9761 9.97303 52.3428C9.5802 52.7054 9.11241 52.9793 8.56965 53.1646C8.02702 53.3458 7.42791 53.4251 6.77231 53.4023C6.1167 53.3795 5.52646 53.2609 5.00159 53.0466C4.47286 52.8281 4.027 52.5284 3.664 52.1476C3.29715 51.7626 3.02089 51.3047 2.83521 50.774C2.64553 50.2431 2.56208 49.6498 2.58486 48.9942C2.59612 48.6704 2.62845 48.3734 2.68187 48.103C2.73543 47.8287 2.81028 47.5752 2.90642 47.3424C2.99857 47.1094 3.11215 46.8933 3.24715 46.6938C3.37816 46.4943 3.52888 46.3034 3.69931 46.1212L3.95732 46.2982C4.05132 46.3575 4.07039 46.4423 4.01453 46.5524C3.98846 46.6115 3.92951 46.6955 3.83767 46.8044C3.74583 46.9133 3.64854 47.064 3.54579 47.2565C3.44304 47.4491 3.34862 47.6899 3.26253 47.9791C3.17657 48.2643 3.12637 48.6148 3.11192 49.0305C3.09275 49.5822 3.16333 50.085 3.32367 50.5388C3.48414 50.9886 3.7228 51.3772 4.03962 51.7044C4.35659 52.0276 4.74794 52.2833 5.21369 52.4716C5.67957 52.6559 6.20633 52.7582 6.79398 52.7787C7.38962 52.7994 7.92821 52.734 8.40976 52.5827C8.89144 52.4273 9.30374 52.1955 9.64666 51.8872C9.98971 51.5749 10.2572 51.192 10.449 50.7384C10.6409 50.2848 10.7468 49.7701 10.7668 49.1945C10.7756 48.9426 10.7677 48.7102 10.743 48.4972C10.7186 48.2802 10.6817 48.0748 10.6324 47.881C10.5792 47.6831 10.5138 47.4927 10.4361 47.3099C10.3545 47.1229 10.2631 46.9336 10.1617 46.742L7.87703 46.6626L7.82056 48.2876C7.81903 48.3316 7.80372 48.3691 7.77463 48.4001C7.74567 48.4271 7.71321 48.44 7.67723 48.4387L7.34143 48.4271L7.42269 46.0885Z" fill="#AB1401"/>
<path d="M10.1178 38.0555L5.52518 38.6013C5.37436 38.6226 5.19703 38.6346 4.99321 38.6374C5.07959 38.6857 5.16159 38.7348 5.2392 38.7849C5.31295 38.8339 5.38039 38.8832 5.44151 38.933L9.1244 41.7213L10.1178 38.0555ZM13.5857 37.0496L13.4617 37.5071C13.447 37.5611 13.4215 37.6019 13.385 37.6293C13.3447 37.6557 13.2988 37.6722 13.2472 37.679L10.6066 37.9953L9.51588 42.0201L11.6355 43.6265C11.6738 43.6534 11.7032 43.6904 11.7236 43.7374C11.744 43.7843 11.7469 43.8348 11.7322 43.8889L11.6098 44.3406L4.32405 38.7669L4.48255 38.182L13.5857 37.0496Z" fill="#AB1401"/>
<path d="M14.9132 31.0588C14.93 31.0225 14.957 30.9975 14.9941 30.9838L15.3291 30.8745C15.4258 31.1132 15.4993 31.3589 15.5499 31.6115C15.5984 31.8588 15.6196 32.1176 15.6134 32.3881C15.6052 32.6532 15.5644 32.9318 15.4908 33.2239C15.4225 33.5141 15.3144 33.8189 15.1665 34.1383C14.9194 34.6719 14.6 35.119 14.2081 35.4798C13.8143 35.8352 13.3728 36.0936 12.8837 36.255C12.391 36.4147 11.8602 36.4709 11.2915 36.4235C10.7244 36.3725 10.1433 36.2092 9.548 35.9335C8.96362 35.6629 8.47208 35.325 8.07338 34.92C7.67467 34.5149 7.37855 34.0692 7.18501 33.5829C6.98784 33.0949 6.90078 32.5785 6.92383 32.0337C6.94325 31.4873 7.08071 30.9382 7.3362 30.3865C7.57993 29.8602 7.87759 29.4316 8.22919 29.1007C8.58078 28.7698 8.98272 28.5063 9.43499 28.3102L9.60184 28.5925C9.63195 28.6417 9.63271 28.6972 9.60414 28.7589C9.58397 28.8024 9.51126 28.8547 9.38603 28.9157C9.26079 28.9767 9.11064 29.0725 8.93559 29.203C8.7569 29.3319 8.56712 29.5085 8.36625 29.7328C8.16705 29.9536 7.98341 30.2454 7.81532 30.6084C7.60017 31.073 7.48251 31.5364 7.46237 31.9988C7.4439 32.4575 7.51877 32.8955 7.68697 33.3128C7.85686 33.7265 8.11981 34.1106 8.47584 34.465C8.83186 34.8194 9.27666 35.1202 9.81022 35.3673C10.3547 35.6194 10.8772 35.7666 11.3778 35.8089C11.88 35.8475 12.3439 35.7978 12.7692 35.6598C13.191 35.5201 13.5683 35.3003 13.9011 35.0004C14.232 34.6952 14.4983 34.3248 14.7 33.8892C14.8278 33.6134 14.9231 33.36 14.986 33.129C15.0505 32.8944 15.0885 32.6696 15.1 32.4545C15.1114 32.2394 15.1006 32.0294 15.0677 31.8246C15.0347 31.6197 14.9827 31.4083 14.9117 31.1903C14.9056 31.1655 14.9031 31.1423 14.9043 31.1208C14.9018 31.0976 14.9048 31.0769 14.9132 31.0588Z" fill="#AB1401"/>
<path d="M17.7876 22.0119C18.3195 22.3959 18.7454 22.8242 19.0653 23.2968C19.382 23.7671 19.5901 24.2578 19.6899 24.7688C19.7864 25.2776 19.7727 25.7955 19.6487 26.3226C19.5238 26.8442 19.2857 27.3482 18.9346 27.8347C18.5834 28.3212 18.1799 28.7059 17.7242 28.9886C17.2653 29.2691 16.7792 29.4436 16.2659 29.5121C15.7495 29.5784 15.2182 29.5353 14.6721 29.3828C14.1228 29.228 13.5822 28.9587 13.0503 28.5747C12.5216 28.1931 12.099 27.7671 11.7823 27.2968C11.4625 26.8242 11.2543 26.3335 11.1578 25.8248C11.058 25.3137 11.069 24.7963 11.1906 24.2723C11.3123 23.7484 11.5487 23.2432 11.8999 22.7567C12.251 22.2703 12.6561 21.8868 13.1151 21.6064C13.5731 21.3204 14.0604 21.1442 14.5768 21.078C15.0933 21.0117 15.6262 21.056 16.1755 21.2108C16.7216 21.3633 17.259 21.6303 17.7876 22.0119ZM17.4154 22.5276C16.9354 22.1811 16.456 21.9362 15.9773 21.7929C15.4986 21.6496 15.0385 21.6036 14.597 21.6549C14.1554 21.7062 13.742 21.8518 13.3568 22.0916C12.9682 22.3292 12.6253 22.6539 12.328 23.0658C12.033 23.4744 11.8339 23.9005 11.7308 24.3441C11.6245 24.7853 11.6153 25.2252 11.7033 25.6636C11.7937 26.0988 11.981 26.5227 12.2654 26.9352C12.5521 27.3444 12.9355 27.7223 13.4155 28.0688C13.8988 28.4176 14.3797 28.6636 14.8584 28.8069C15.3362 28.9446 15.7959 28.9878 16.2374 28.9366C16.6813 28.8821 17.0959 28.7349 17.4812 28.495C17.8665 28.2551 18.2066 27.9308 18.5016 27.5222C18.7989 27.1103 19.0007 26.6837 19.1071 26.2425C19.2135 25.8013 19.2215 25.3631 19.1311 24.9279C19.0407 24.4926 18.8538 24.0716 18.5703 23.6647C18.2836 23.2555 17.8986 22.8764 17.4154 22.5276Z" fill="#AB1401"/>
<path d="M16.5956 18.0561L19.1015 20.5988L21.8578 17.8822L22.2158 18.2454L19.4595 20.962L22.1971 23.7397L21.757 24.1735L15.7974 18.1267L19.4212 14.5552L19.7792 14.9184L16.5956 18.0561Z" fill="#AB1401"/>
<path d="M26.4772 19.8536L25.9925 20.2369L20.7268 13.5771L21.2116 13.1938L26.4772 19.8536Z" fill="#AB1401"/>
<path d="M31.3153 6.7784L35.5254 14.151L35.0616 14.4158L31.4734 8.13216C31.4219 8.04185 31.3725 7.94335 31.3254 7.83666L31.3658 14.6469C31.3688 14.765 31.3251 14.8498 31.2348 14.9014L31.1514 14.949C31.0611 15.0006 30.9658 14.9951 30.8656 14.9326L24.9368 11.471C25.0067 11.5692 25.0685 11.6653 25.122 11.759L28.7102 18.0427L28.2413 18.3105L24.0313 10.9379L24.4012 10.7266C24.4498 10.6988 24.491 10.6822 24.5247 10.6768C24.5585 10.6713 24.6021 10.6833 24.6557 10.7125L30.5585 14.1406C30.6661 14.2081 30.7708 14.2866 30.8725 14.3759C30.8616 14.3084 30.8534 14.2417 30.848 14.1757C30.8406 14.1062 30.8369 14.0392 30.8369 13.9748L30.8039 7.2017C30.8059 7.14068 30.8178 7.09702 30.8397 7.07073C30.865 7.04246 30.902 7.01444 30.9506 6.98667L31.3153 6.7784Z" fill="#AB1401"/>
<path d="M39.7843 9.59111L36.7765 6.07783C36.6749 5.96433 36.5663 5.82366 36.4506 5.65581C36.4586 5.75445 36.4633 5.84994 36.4649 5.94227C36.4652 6.03081 36.4617 6.11431 36.4544 6.19276L36.1853 10.8043L39.7843 9.59111ZM42.5491 11.9137L42.0999 12.0651C42.0468 12.0829 41.9988 12.0844 41.9557 12.0693C41.9114 12.0505 41.8721 12.0216 41.8378 11.9825L40.1063 9.9638L36.1547 11.2958L35.9986 13.9508C35.9975 13.9976 35.9831 14.0425 35.9554 14.0856C35.9277 14.1287 35.8874 14.1592 35.8343 14.1771L35.3908 14.3266L35.9709 5.17171L36.5451 4.97813L42.5491 11.9137Z" fill="#AB1401"/>
<path d="M51.6978 7.97223L49.773 3.76682C49.7066 3.62975 49.6409 3.46461 49.5759 3.27141C49.5564 3.36842 49.5347 3.46153 49.5108 3.55073C49.4867 3.63593 49.4603 3.71524 49.4317 3.78864L47.9038 8.14804L51.6978 7.97223ZM53.7165 10.966L53.243 10.9879C53.1871 10.9905 53.1405 10.9787 53.1032 10.9524C53.0658 10.9221 53.036 10.8834 53.0138 10.8364L51.9047 8.41913L47.7392 8.61216L46.8584 11.1216C46.8444 11.1663 46.8182 11.2056 46.7797 11.2394C46.7413 11.2732 46.6941 11.2914 46.6381 11.294L46.1706 11.3157L49.2479 2.67396L49.8532 2.6459L53.7165 10.966Z" fill="#AB1401"/>
<path d="M61.2263 8.11706L60.8435 11.1107C60.3849 11.3545 59.9074 11.5253 59.411 11.6232C58.9146 11.721 58.3688 11.7319 57.7736 11.6558C57.107 11.5706 56.5209 11.3928 56.0151 11.1225C55.5098 10.8482 55.0925 10.5004 54.7632 10.0793C54.4385 9.65468 54.2089 9.1636 54.0745 8.60605C53.9441 8.04902 53.9205 7.44515 54.0037 6.79445C54.0869 6.14374 54.2594 5.56697 54.5213 5.06412C54.7876 4.55781 55.1272 4.1415 55.5399 3.81521C55.9571 3.48545 56.4385 3.25262 56.9841 3.11672C57.5303 2.97685 58.1287 2.94851 58.7794 3.0317C59.1008 3.07279 59.3936 3.13241 59.6578 3.21054C59.926 3.28919 60.1716 3.38712 60.3945 3.50434C60.618 3.61759 60.8227 3.75063 61.0089 3.90347C61.1955 4.05234 61.3716 4.22003 61.5373 4.40655L61.3372 4.64712C61.2695 4.73524 61.1834 4.74641 61.0789 4.68063C61.0224 4.64921 60.9442 4.58276 60.8443 4.48126C60.7443 4.37977 60.6032 4.26898 60.421 4.1489C60.2387 4.02882 60.0076 3.91257 59.7276 3.80016C59.4516 3.68825 59.1072 3.60591 58.6946 3.55316C58.1471 3.48316 57.6399 3.50704 57.1732 3.6248C56.7105 3.74308 56.3016 3.94485 55.9466 4.23013C55.5955 4.51591 55.3047 4.882 55.0742 5.32837C54.8477 5.77526 54.6972 6.29033 54.6226 6.87358C54.5471 7.46477 54.5624 8.00709 54.6687 8.50055C54.7789 8.99452 54.9717 9.42646 55.247 9.79636C55.5263 10.1668 55.8829 10.4684 56.3169 10.7013C56.7509 10.9343 57.2535 11.0872 57.8249 11.1603C58.0748 11.1922 58.307 11.2058 58.5213 11.2009C58.7397 11.1966 58.9476 11.1788 59.1451 11.1476C59.3472 11.113 59.5428 11.0654 59.732 11.0049C59.9256 10.9409 60.1226 10.8673 60.3228 10.784L60.6127 8.51647L58.9998 8.31027C58.9561 8.30469 58.9202 8.28598 58.892 8.25415C58.8678 8.22283 58.858 8.18931 58.8625 8.1536L58.9052 7.82031L61.2263 8.11706Z" fill="#AB1401"/>
<path d="M68.7199 11.4489L68.5918 6.82578C68.5843 6.67365 68.5883 6.49597 68.604 6.29273C68.5481 6.37439 68.4917 6.4516 68.4349 6.52437C68.3794 6.59339 68.3241 6.65608 68.2691 6.71246L65.159 10.128L68.7199 11.4489ZM69.4081 14.9936L68.9637 14.8287C68.9112 14.8092 68.8729 14.7801 68.8489 14.7413C68.8263 14.6988 68.814 14.6516 68.8119 14.5996L68.7357 11.9412L64.8261 10.4909L63.0346 12.4565C63.0043 12.4922 62.9648 12.5181 62.9162 12.5342C62.8676 12.5503 62.817 12.5486 62.7645 12.5291L62.3257 12.3664L68.5356 5.61459L69.1037 5.82536L69.4081 14.9936Z" fill="#AB1401"/>
<path d="M75.4071 16.9231C75.4417 16.9432 75.4641 16.9724 75.4742 17.0106L75.5522 17.3543C75.3055 17.4284 75.0541 17.479 74.7979 17.506C74.5472 17.5315 74.2875 17.5287 74.0188 17.4975C73.7556 17.4649 73.4819 17.3984 73.1978 17.2982C72.9152 17.2034 72.6217 17.0676 72.3173 16.8908C71.8089 16.5955 71.3931 16.2361 71.0702 15.8125C70.7527 15.3876 70.5361 14.9241 70.4206 14.4222C70.3071 13.9168 70.3002 13.3831 70.3999 12.8212C70.5031 12.2613 70.7195 11.6977 71.049 11.1305C71.3724 10.5736 71.7542 10.1154 72.1944 9.75579C72.6345 9.39621 73.1057 9.14254 73.6078 8.99477C74.112 8.84353 74.6342 8.80456 75.1745 8.87784C75.7168 8.94767 76.2508 9.13527 76.7766 9.44065C77.2781 9.73196 77.6774 10.068 77.9744 10.4486C78.2713 10.8293 78.4966 11.2538 78.65 11.7223L78.3536 11.8624C78.3018 11.8878 78.2465 11.8834 78.1877 11.8493C78.1462 11.8252 78.1009 11.7479 78.0517 11.6176C78.0025 11.4873 77.921 11.3289 77.8072 11.1425C77.6954 10.9527 77.5371 10.7474 77.3323 10.5267C77.1309 10.3079 76.8573 10.0981 76.5114 9.89721C76.0687 9.64005 75.618 9.48008 75.1595 9.4173C74.7045 9.35653 74.2614 9.3906 73.8304 9.51953C73.4028 9.65047 72.996 9.87681 72.6102 10.1986C72.2244 10.5203 71.8839 10.9354 71.5885 11.4439C71.2872 11.9627 71.0923 12.4694 71.004 12.9639C70.9191 13.4605 70.9257 13.9269 71.0239 14.3632C71.124 14.7961 71.308 15.192 71.5759 15.5512C71.8492 15.9088 72.1934 16.2082 72.6084 16.4493C72.8713 16.602 73.1148 16.7203 73.339 16.8043C73.5666 16.8902 73.787 16.9488 74.0001 16.9801C74.2132 17.0114 74.4233 17.0201 74.6303 17.0062C74.8373 16.9922 75.0526 16.96 75.2762 16.9095C75.3016 16.9057 75.3249 16.9054 75.3462 16.9085C75.3695 16.9082 75.3898 16.913 75.4071 16.9231Z" fill="#AB1401"/>
<path d="M84.1574 20.5955C83.7267 21.0902 83.2614 21.4754 82.7617 21.7509C82.2645 22.0235 81.7569 22.1862 81.2389 22.239C80.7235 22.2888 80.209 22.228 79.6953 22.0566C79.1872 21.8848 78.707 21.6019 78.2544 21.2079C77.8019 20.8139 77.4556 20.3771 77.2154 19.8976C76.9779 19.415 76.8484 18.9151 76.8268 18.3977C76.8078 17.8774 76.899 17.3522 77.1005 16.8223C77.3047 16.2893 77.6221 15.7755 78.0529 15.2807C78.481 14.7889 78.9436 14.4068 79.4408 14.1343C79.9406 13.8587 80.4481 13.696 80.9635 13.6462C81.4815 13.5933 81.9959 13.6513 82.5066 13.8201C83.0172 13.989 83.4988 14.2704 83.9514 14.6643C84.4039 15.0583 84.7489 15.4966 84.9864 15.9791C85.2296 16.4613 85.3606 16.9626 85.3796 17.483C85.3986 18.0033 85.306 18.53 85.1019 19.0629C84.9004 19.5929 84.5856 20.1037 84.1574 20.5955ZM83.6778 20.1778C84.0665 19.7313 84.354 19.2763 84.5402 18.8126C84.7265 18.3489 84.8141 17.8949 84.8032 17.4505C84.7924 17.0061 84.685 16.5812 84.4812 16.1757C84.28 15.7672 83.9878 15.3961 83.6047 15.0626C83.2245 14.7316 82.8183 14.4946 82.386 14.3516C81.9563 14.2055 81.5191 14.1564 81.0744 14.2041C80.6328 14.2545 80.1936 14.4026 79.757 14.6482C79.3234 14.8965 78.9122 15.2439 78.5235 15.6904C78.1321 16.1399 77.8433 16.5965 77.6571 17.0602C77.4765 17.5235 77.3916 17.9773 77.4025 18.4217C77.4164 18.8687 77.5253 19.2949 77.7291 19.7005C77.933 20.106 78.2249 20.4742 78.6051 20.8051C78.9882 21.1387 79.3946 21.3785 79.8243 21.5246C80.254 21.6706 80.6897 21.7185 81.1314 21.6681C81.573 21.6177 82.0093 21.4698 82.4403 21.2246C82.8739 20.9763 83.2864 20.6274 83.6778 20.1778Z" fill="#AB1401"/>
<path d="M88.4086 19.9932L85.6407 22.2479L88.085 25.2483L87.6896 25.5705L85.2453 22.57L82.2216 25.0332L81.8313 24.554L88.4137 19.1919L91.6272 23.1367L91.2318 23.4588L88.4086 19.9932Z" fill="#AB1401"/>
<path d="M85.6952 29.6904L85.3596 29.1715L92.489 24.5615L92.8246 25.0804L85.6952 29.6904Z" fill="#AB1401"/>
<path d="M98.1691 35.5746L90.4387 39.0848L90.2179 38.5986L96.8065 35.6068C96.9012 35.5638 97.0038 35.5238 97.1144 35.4868L90.3296 34.8972C90.2117 34.8892 90.1313 34.8379 90.0883 34.7432L90.0486 34.6558C90.0056 34.5611 90.0199 34.4668 90.0914 34.3728L94.0864 28.7894C93.9821 28.85 93.8808 28.9026 93.7825 28.9472L87.1939 31.939L86.9706 31.4473L94.701 27.9371L94.8771 28.325C94.9003 28.376 94.913 28.4185 94.9153 28.4526C94.9176 28.4867 94.9017 28.5291 94.8676 28.5797L90.9084 34.1402C90.8312 34.2411 90.7434 34.3381 90.6451 34.4311C90.7133 34.4265 90.7805 34.4245 90.8467 34.4252C90.9165 34.4242 90.9836 34.4267 91.0478 34.4327L97.7949 35.0262C97.8554 35.0338 97.8978 35.0497 97.922 35.0739C97.9478 35.1017 97.9723 35.1411 97.9954 35.1921L98.1691 35.5746Z" fill="#AB1401"/>
<path d="M94.5401 43.5903L98.3119 40.9138C98.4341 40.8229 98.5841 40.7275 98.7617 40.6276C98.6628 40.6265 98.5673 40.6226 98.4752 40.6158C98.387 40.608 98.3041 40.5969 98.2267 40.5825L93.6586 39.8961L94.5401 43.5903ZM91.9762 46.1329L91.8662 45.6718C91.8532 45.6173 91.8562 45.5694 91.875 45.5278C91.8978 45.4854 91.9302 45.4489 91.9723 45.4183L94.1397 43.8771L93.1719 39.821L90.542 39.4246C90.4955 39.4192 90.4521 39.4008 90.4116 39.3693C90.3712 39.3378 90.3445 39.2949 90.3315 39.2404L90.2229 38.7852L99.2874 40.1937L99.428 40.7832L91.9762 46.1329Z" fill="#AB1401"/>
</svg>
