<svg width="39" height="715" viewBox="0 0 39 715" fill="none" xmlns="http://www.w3.org/2000/svg">
<path d="M12.1201 712.66C11.1467 713.247 10.1267 713.64 9.06006 713.84C7.98006 714.04 6.91339 714.06 5.86006 713.9C4.80673 713.74 3.80006 713.4 2.84006 712.88C1.88006 712.347 1.02006 711.64 0.26006 710.76L1.00006 709.54C1.14673 709.327 1.32673 709.233 1.54006 709.26C1.74006 709.287 1.90673 709.36 2.04006 709.48C2.44006 709.8 2.94006 710.087 3.54006 710.34C4.12673 710.58 4.76673 710.74 5.46006 710.82C6.15339 710.9 6.87339 710.873 7.62006 710.74C8.36673 710.607 9.10006 710.327 9.82006 709.9C10.1267 709.713 10.4001 709.66 10.6401 709.74C10.8801 709.82 11.0534 709.993 11.1601 710.26L12.1201 712.66ZM12.1201 706.44C11.1467 707.027 10.1267 707.42 9.06006 707.62C7.98006 707.82 6.91339 707.84 5.86006 707.68C4.80673 707.52 3.80006 707.18 2.84006 706.66C1.88006 706.127 1.02006 705.42 0.260059 704.54L1.00006 703.32C1.14673 703.107 1.32673 703.013 1.54006 703.04C1.74006 703.067 1.90673 703.14 2.04006 703.26C2.44006 703.58 2.94006 703.867 3.54006 704.12C4.12673 704.36 4.76673 704.52 5.46006 704.6C6.15339 704.68 6.87339 704.653 7.62006 704.52C8.36673 704.387 9.10006 704.107 9.82006 703.68C10.1267 703.493 10.4001 703.44 10.6401 703.52C10.8801 703.6 11.0534 703.773 11.1601 704.04L12.1201 706.44ZM2.28006 660.116L31.0001 669.076L31.0001 672.916L9.70006 679.916C9.27339 680.076 8.76006 680.216 8.16006 680.336C8.77339 680.483 9.28672 680.623 9.70006 680.756L31.0001 687.836L31.0001 691.656L2.28006 700.616L2.28006 697.056C2.28006 696.683 2.37339 696.37 2.56006 696.116C2.73339 695.863 2.97339 695.696 3.28006 695.616L22.5001 689.956C22.8734 689.85 23.2801 689.756 23.7201 689.676C24.1601 689.583 24.6201 689.49 25.1001 689.396C24.6201 689.303 24.1601 689.21 23.7201 689.116C23.2801 689.01 22.8734 688.89 22.5001 688.756L3.28006 682.276C3.01339 682.196 2.78006 682.03 2.58006 681.776C2.38006 681.51 2.28006 681.196 2.28006 680.836L2.28006 679.616C2.28006 679.243 2.37339 678.936 2.56006 678.696C2.74672 678.456 2.98672 678.283 3.28006 678.176L22.5001 671.716C23.2334 671.476 24.0667 671.263 25.0001 671.076C24.0801 670.916 23.2467 670.743 22.5001 670.556L3.28006 664.876C3.01339 664.81 2.78006 664.643 2.58006 664.376C2.38006 664.11 2.28006 663.796 2.28006 663.436L2.28006 660.116ZM21.9801 648.238C22.0334 649.825 22.1601 651.172 22.3601 652.278C22.5467 653.385 22.8001 654.285 23.1201 654.978C23.4401 655.672 23.8201 656.172 24.2601 656.478C24.6867 656.785 25.1667 656.938 25.7001 656.938C26.2067 656.938 26.6467 656.858 27.0201 656.698C27.3801 656.525 27.6801 656.298 27.9201 656.018C28.1467 655.725 28.3134 655.385 28.4201 654.998C28.5267 654.612 28.5801 654.192 28.5801 653.738C28.5801 653.138 28.5201 652.592 28.4001 652.098C28.2801 651.592 28.1134 651.118 27.9001 650.678C27.6734 650.238 27.4001 649.818 27.0801 649.418C26.7601 649.018 26.3934 648.625 25.9801 648.238L21.9801 648.238ZM13.5201 659.678C12.4401 658.545 11.6334 657.318 11.1001 655.998C10.5667 654.665 10.3001 653.205 10.3001 651.618C10.3001 650.458 10.4934 649.432 10.8801 648.538C11.2534 647.645 11.7801 646.892 12.4601 646.278C13.1401 645.665 13.9534 645.205 14.9001 644.898C15.8467 644.578 16.8934 644.418 18.0401 644.418L31.0001 644.418L31.0001 646.158C31.0001 646.545 30.9401 646.838 30.8201 647.038C30.6867 647.238 30.4467 647.398 30.1001 647.518L28.3201 647.938C28.8001 648.458 29.2267 648.972 29.6001 649.478C29.9601 649.985 30.2734 650.518 30.5401 651.078C30.7934 651.625 30.9867 652.212 31.1201 652.838C31.2534 653.465 31.3201 654.158 31.3201 654.918C31.3201 655.718 31.2134 656.472 31.0001 657.178C30.7734 657.872 30.4334 658.478 29.9801 658.998C29.5267 659.518 28.9601 659.932 28.2801 660.238C27.6001 660.532 26.8067 660.678 25.9001 660.678C25.1001 660.678 24.3334 660.465 23.6001 660.038C22.8534 659.598 22.1867 658.892 21.6001 657.918C21.0134 656.932 20.5334 655.652 20.1601 654.078C19.7867 652.492 19.5734 650.545 19.5201 648.238L18.0401 648.238C16.5067 648.238 15.3601 648.565 14.6001 649.218C13.8401 649.872 13.4601 650.832 13.4601 652.098C13.4601 652.952 13.5667 653.672 13.7801 654.258C13.9934 654.832 14.2334 655.332 14.5001 655.758C14.7534 656.172 14.9867 656.538 15.2001 656.858C15.4134 657.165 15.5201 657.485 15.5201 657.818C15.5201 658.085 15.4467 658.318 15.3001 658.518C15.1534 658.705 14.9801 658.858 14.7801 658.978L13.5201 659.678ZM14.5801 635.517C13.2467 634.864 12.2001 634.077 11.4401 633.157C10.6801 632.237 10.3001 631.131 10.3001 629.837C10.3001 629.397 10.3534 628.984 10.4601 628.597C10.5534 628.197 10.7001 627.851 10.9001 627.557L13.8401 627.817C14.2001 627.911 14.3801 628.131 14.3801 628.477C14.3801 628.664 14.3467 628.944 14.2801 629.317C14.2001 629.691 14.1601 630.091 14.1601 630.517C14.1601 631.144 14.2534 631.697 14.4401 632.177C14.6134 632.657 14.8801 633.091 15.2401 633.477C15.5867 633.851 16.0201 634.184 16.5401 634.477C17.0467 634.771 17.6267 635.044 18.2801 635.297L31.0001 635.297L31.0001 639.197L10.6801 639.197L10.6801 636.957C10.6801 636.531 10.7601 636.244 10.9201 636.097C11.0667 635.937 11.3334 635.824 11.7201 635.757L14.5801 635.517ZM31.0001 624.549L10.6801 624.549L10.6801 622.209C10.6801 621.662 10.9401 621.322 11.4601 621.189L13.4001 620.909C12.5067 620.162 11.7801 619.336 11.2201 618.429C10.6467 617.509 10.3601 616.436 10.3601 615.209C10.3601 613.862 10.7334 612.769 11.4801 611.929C12.2134 611.089 13.2134 610.476 14.4801 610.089C13.7601 609.796 13.1401 609.416 12.6201 608.949C12.1001 608.482 11.6734 607.962 11.3401 607.389C11.0067 606.816 10.7601 606.209 10.6001 605.569C10.4401 604.916 10.3601 604.256 10.3601 603.589C10.3601 602.509 10.5334 601.549 10.8801 600.709C11.2134 599.856 11.7067 599.136 12.3601 598.549C13.0134 597.962 13.8201 597.516 14.7801 597.209C15.7401 596.902 16.8334 596.749 18.0601 596.749L31.0001 596.749L31.0001 600.669L18.0601 600.669C16.5401 600.669 15.3934 601.002 14.6201 601.669C13.8467 602.322 13.4601 603.282 13.4601 604.549C13.4601 605.109 13.5601 605.642 13.7601 606.149C13.9467 606.656 14.2334 607.102 14.6201 607.489C15.0067 607.862 15.4867 608.162 16.0601 608.389C16.6334 608.602 17.3001 608.709 18.0601 608.709L31.0001 608.709L31.0001 612.629L18.0601 612.629C16.4867 612.629 15.3267 612.942 14.5801 613.569C13.8334 614.196 13.4601 615.116 13.4601 616.329C13.4601 617.169 13.6801 617.949 14.1201 618.669C14.5601 619.389 15.1601 620.049 15.9201 620.649L31.0001 620.649L31.0001 624.549ZM13.2601 577.485C12.3934 576.632 11.6934 575.692 11.1601 574.665C10.6267 573.625 10.3601 572.432 10.3601 571.085C10.3601 569.965 10.5467 568.985 10.9201 568.145C11.2934 567.292 11.8201 566.578 12.5001 566.005C13.1667 565.432 13.9734 564.998 14.9201 564.705C15.8667 564.412 16.9134 564.265 18.0601 564.265L31.0001 564.265L31.0001 568.185L18.0601 568.185C16.6067 568.185 15.4801 568.518 14.6801 569.185C13.8667 569.852 13.4601 570.872 13.4601 572.245C13.4601 573.245 13.7001 574.185 14.1801 575.065C14.6467 575.932 15.2867 576.738 16.1001 577.485L31.0001 577.485L31.0001 581.385L1.48005 581.385L1.48005 577.485L13.2601 577.485ZM18.5801 545.542C17.8067 545.542 17.0934 545.656 16.4401 545.882C15.7867 546.096 15.2201 546.416 14.7401 546.842C14.2601 547.269 13.8867 547.789 13.6201 548.402C13.3534 549.016 13.2201 549.722 13.2201 550.522C13.2201 552.162 13.6934 553.456 14.6401 554.402C15.5867 555.336 16.9001 555.929 18.5801 556.182L18.5801 545.542ZM28.1001 542.322C28.6601 542.802 29.1467 543.356 29.5601 543.982C29.9601 544.609 30.2867 545.276 30.5401 545.982C30.7934 546.689 30.9801 547.422 31.1001 548.182C31.2201 548.929 31.2801 549.669 31.2801 550.402C31.2801 551.802 31.0467 553.102 30.5801 554.302C30.1001 555.489 29.4067 556.522 28.5001 557.402C27.5801 558.269 26.4467 558.949 25.1001 559.442C23.7401 559.922 22.1801 560.162 20.4201 560.162C19.0067 560.162 17.6934 559.942 16.4801 559.502C15.2534 559.062 14.1867 558.436 13.2801 557.622C12.3734 556.796 11.6601 555.789 11.1401 554.602C10.6201 553.416 10.3601 552.082 10.3601 550.602C10.3601 549.362 10.5667 548.222 10.9801 547.182C11.3801 546.129 11.9667 545.222 12.7401 544.462C13.5134 543.702 14.4667 543.109 15.6001 542.682C16.7334 542.242 18.0267 542.022 19.4801 542.022C20.0801 542.022 20.4867 542.089 20.7001 542.222C20.9001 542.356 21.0001 542.602 21.0001 542.962L21.0001 556.282C22.2134 556.242 23.2734 556.069 24.1801 555.762C25.0734 555.456 25.8201 555.036 26.4201 554.502C27.0201 553.956 27.4667 553.309 27.7601 552.562C28.0534 551.816 28.2001 550.982 28.2001 550.062C28.2001 549.196 28.1001 548.449 27.9001 547.822C27.7001 547.182 27.4867 546.636 27.2601 546.182C27.0201 545.716 26.8001 545.329 26.6001 545.022C26.4001 544.702 26.3001 544.422 26.3001 544.182C26.3001 543.862 26.4201 543.616 26.6601 543.442L28.1001 542.322ZM21.9801 526.91C22.0334 528.497 22.1601 529.844 22.3601 530.95C22.5467 532.057 22.8001 532.957 23.1201 533.65C23.4401 534.344 23.8201 534.844 24.2601 535.15C24.6867 535.457 25.1667 535.61 25.7001 535.61C26.2067 535.61 26.6467 535.53 27.0201 535.37C27.3801 535.197 27.6801 534.97 27.9201 534.69C28.1467 534.397 28.3134 534.057 28.4201 533.67C28.5267 533.284 28.5801 532.864 28.5801 532.41C28.5801 531.81 28.5201 531.264 28.4001 530.77C28.2801 530.264 28.1134 529.79 27.9001 529.35C27.6734 528.91 27.4001 528.49 27.0801 528.09C26.7601 527.69 26.3934 527.297 25.9801 526.91L21.9801 526.91ZM13.5201 538.35C12.4401 537.217 11.6334 535.99 11.1001 534.67C10.5667 533.337 10.3001 531.877 10.3001 530.29C10.3001 529.13 10.4934 528.104 10.8801 527.21C11.2534 526.317 11.7801 525.564 12.4601 524.95C13.1401 524.337 13.9534 523.877 14.9001 523.57C15.8467 523.25 16.8934 523.09 18.0401 523.09L31.0001 523.09L31.0001 524.83C31.0001 525.217 30.9401 525.51 30.8201 525.71C30.6867 525.91 30.4467 526.07 30.1001 526.19L28.3201 526.61C28.8001 527.13 29.2267 527.644 29.6001 528.15C29.9601 528.657 30.2734 529.19 30.5401 529.75C30.7934 530.297 30.9867 530.884 31.1201 531.51C31.2534 532.137 31.3201 532.83 31.3201 533.59C31.3201 534.39 31.2134 535.144 31.0001 535.85C30.7734 536.544 30.4334 537.15 29.9801 537.67C29.5267 538.19 28.9601 538.604 28.2801 538.91C27.6001 539.204 26.8067 539.35 25.9001 539.35C25.1001 539.35 24.3334 539.137 23.6001 538.71C22.8534 538.27 22.1867 537.564 21.6001 536.59C21.0134 535.604 20.5334 534.324 20.1601 532.75C19.7867 531.164 19.5734 529.217 19.5201 526.91L18.0401 526.91C16.5067 526.91 15.3601 527.237 14.6001 527.89C13.8401 528.544 13.4601 529.504 13.4601 530.77C13.4601 531.624 13.5667 532.344 13.7801 532.93C13.9934 533.504 14.2334 534.004 14.5001 534.43C14.7534 534.844 14.9867 535.21 15.2001 535.53C15.4134 535.837 15.5201 536.157 15.5201 536.49C15.5201 536.757 15.4467 536.99 15.3001 537.19C15.1534 537.377 14.9801 537.53 14.7801 537.65L13.5201 538.35ZM14.5801 514.189C13.2467 513.536 12.2001 512.749 11.4401 511.829C10.6801 510.909 10.3001 509.803 10.3001 508.509C10.3001 508.069 10.3534 507.656 10.4601 507.269C10.5534 506.869 10.7001 506.523 10.9001 506.229L13.8401 506.489C14.2001 506.583 14.3801 506.803 14.3801 507.149C14.3801 507.336 14.3467 507.616 14.2801 507.989C14.2001 508.363 14.1601 508.763 14.1601 509.189C14.1601 509.816 14.2534 510.369 14.4401 510.849C14.6134 511.329 14.8801 511.763 15.2401 512.149C15.5867 512.523 16.0201 512.856 16.5401 513.149C17.0467 513.443 17.6267 513.716 18.2801 513.969L31.0001 513.969L31.0001 517.869L10.6801 517.869L10.6801 515.629C10.6801 515.203 10.7601 514.916 10.9201 514.769C11.0667 514.609 11.3334 514.496 11.7201 514.429L14.5801 514.189ZM31.3201 496.861C31.3201 498.501 30.8601 499.768 29.9401 500.661C29.0201 501.541 27.7067 501.981 26.0001 501.981L13.8401 501.981L13.8401 504.341C13.8401 504.568 13.7734 504.761 13.6401 504.921C13.4934 505.068 13.2801 505.141 13.0001 505.141L11.4201 505.141L10.96 501.841L4.90005 500.961C4.67338 500.908 4.50005 500.808 4.38005 500.661C4.24672 500.501 4.18005 500.301 4.18005 500.061L4.18005 498.081L11.0001 498.081L11.0001 492.321L13.8401 492.321L13.8401 498.081L25.7401 498.081C26.5401 498.081 27.1401 497.888 27.5401 497.501C27.9267 497.101 28.1201 496.594 28.1201 495.981C28.1201 495.621 28.0734 495.314 27.9801 495.061C27.8867 494.794 27.7867 494.568 27.6801 494.381C27.5601 494.194 27.4534 494.034 27.3601 493.901C27.2667 493.768 27.2201 493.648 27.2201 493.541C27.2201 493.408 27.2534 493.308 27.3201 493.241C27.3734 493.161 27.4667 493.081 27.6001 493.001L29.4801 491.841C30.0667 492.481 30.5201 493.241 30.8401 494.121C31.1601 495.001 31.3201 495.914 31.3201 496.861ZM31.0001 486.969C31.0001 487.329 30.9334 487.662 30.8001 487.969C30.6667 488.262 30.4867 488.522 30.2601 488.749C30.0201 488.962 29.7401 489.129 29.4201 489.249C29.1001 489.369 28.7534 489.429 28.3801 489.429C28.0601 489.429 27.7601 489.369 27.4801 489.249C27.1867 489.129 26.9334 488.962 26.7201 488.749C26.5067 488.522 26.3401 488.255 26.2201 487.949C26.0867 487.642 26.0201 487.302 26.0201 486.929C26.0201 486.502 26.1001 486.129 26.2601 485.809C26.4067 485.475 26.6201 485.202 26.9001 484.989C27.1667 484.762 27.4801 484.595 27.8401 484.489C28.2001 484.382 28.5867 484.329 29.0001 484.329C29.6001 484.329 30.2334 484.415 30.9001 484.589C31.5667 484.762 32.2267 485.015 32.8801 485.349C33.5334 485.682 34.1667 486.095 34.7801 486.589C35.3934 487.082 35.9601 487.642 36.4801 488.269L35.8601 488.929C35.6734 489.129 35.4667 489.229 35.2401 489.229C35.1467 489.229 35.0467 489.202 34.9401 489.149C34.8467 489.082 34.7534 489.002 34.6601 488.909C34.5134 488.775 34.3201 488.602 34.0801 488.389C33.8401 488.175 33.5601 487.969 33.2401 487.769C32.9334 487.555 32.5867 487.362 32.2001 487.189C31.8267 487.002 31.4267 486.869 31.0001 486.789L31.0001 486.969ZM21.98 458.551C22.0334 460.138 22.16 461.484 22.36 462.591C22.5467 463.698 22.8 464.598 23.12 465.291C23.44 465.984 23.82 466.484 24.26 466.791C24.6867 467.098 25.1667 467.251 25.7 467.251C26.2067 467.251 26.6467 467.171 27.02 467.011C27.38 466.838 27.68 466.611 27.92 466.331C28.1467 466.038 28.3134 465.698 28.42 465.311C28.5267 464.924 28.58 464.504 28.58 464.051C28.58 463.451 28.52 462.904 28.4 462.411C28.28 461.904 28.1134 461.431 27.9 460.991C27.6734 460.551 27.4 460.131 27.08 459.731C26.76 459.331 26.3934 458.938 25.98 458.551L21.98 458.551ZM13.5201 469.991C12.44 468.858 11.6334 467.631 11.1 466.311C10.5667 464.978 10.3 463.518 10.3 461.931C10.3 460.771 10.4934 459.744 10.88 458.851C11.2534 457.958 11.78 457.204 12.46 456.591C13.14 455.978 13.9534 455.518 14.9 455.211C15.8467 454.891 16.8934 454.731 18.04 454.731L31 454.731L31 456.471C31 456.858 30.94 457.151 30.82 457.351C30.6867 457.551 30.4467 457.711 30.1 457.831L28.32 458.251C28.8 458.771 29.2267 459.284 29.6 459.791C29.96 460.298 30.2734 460.831 30.54 461.391C30.7934 461.938 30.9867 462.524 31.12 463.151C31.2534 463.778 31.3201 464.471 31.3201 465.231C31.3201 466.031 31.2134 466.784 31.0001 467.491C30.7734 468.184 30.4334 468.791 29.9801 469.311C29.5267 469.831 28.9601 470.244 28.2801 470.551C27.6001 470.844 26.8067 470.991 25.9 470.991C25.1 470.991 24.3334 470.778 23.6001 470.351C22.8534 469.911 22.1867 469.204 21.6 468.231C21.0134 467.244 20.5334 465.964 20.16 464.391C19.7867 462.804 19.5734 460.858 19.52 458.551L18.04 458.551C16.5067 458.551 15.36 458.878 14.6 459.531C13.84 460.184 13.46 461.144 13.46 462.411C13.46 463.264 13.5667 463.984 13.78 464.571C13.9934 465.144 14.2334 465.644 14.5 466.071C14.7534 466.484 14.9867 466.851 15.2 467.171C15.4134 467.478 15.52 467.798 15.52 468.131C15.52 468.398 15.4467 468.631 15.3 468.831C15.1534 469.018 14.98 469.171 14.78 469.291L13.5201 469.991ZM20.86 442.37C20.86 441.677 20.7667 441.07 20.58 440.55C20.3934 440.017 20.1334 439.577 19.8 439.23C19.4534 438.87 19.04 438.603 18.56 438.43C18.08 438.243 17.5534 438.15 16.98 438.15C15.8067 438.15 14.8734 438.51 14.18 439.23C13.4734 439.937 13.12 440.983 13.12 442.37C13.12 443.743 13.4734 444.79 14.18 445.51C14.8734 446.217 15.8067 446.57 16.98 446.57C17.5534 446.57 18.08 446.483 18.56 446.31C19.0267 446.123 19.4334 445.857 19.78 445.51C20.1134 445.15 20.38 444.71 20.58 444.19C20.7667 443.657 20.86 443.05 20.86 442.37ZM32.06 436.15C31.58 436.15 31.2 436.283 30.92 436.55C30.6267 436.817 30.4 437.183 30.24 437.65C30.0667 438.103 29.9467 438.637 29.88 439.25C29.8 439.863 29.74 440.51 29.7 441.19C29.66 441.857 29.6267 442.543 29.6 443.25C29.56 443.957 29.4934 444.637 29.4 445.29C29.7467 445.983 30.1667 446.557 30.66 447.01C31.1534 447.45 31.7334 447.67 32.4 447.67C32.8267 447.67 33.2267 447.563 33.6 447.35C33.9734 447.123 34.2934 446.783 34.56 446.33C34.84 445.863 35.0534 445.283 35.2 444.59C35.36 443.883 35.44 443.043 35.44 442.07C35.44 441.11 35.3534 440.263 35.18 439.53C35.02 438.797 34.7867 438.183 34.48 437.69C34.1867 437.183 33.8334 436.803 33.42 436.55C33.0067 436.283 32.5534 436.15 32.06 436.15ZM11.44 432.19L12.9 432.19C13.38 432.19 13.68 432.49 13.8 433.09L14.12 435.27C14.5334 435.083 14.9734 434.937 15.44 434.83C15.8934 434.723 16.3734 434.67 16.88 434.67C17.88 434.67 18.7867 434.863 19.6 435.25C20.4 435.637 21.0867 436.17 21.66 436.85C22.2334 437.53 22.6734 438.343 22.98 439.29C23.2867 440.223 23.44 441.25 23.44 442.37C23.44 443.29 23.34 444.15 23.14 444.95C23.38 445.35 23.6467 445.657 23.94 445.87C24.22 446.07 24.5 446.17 24.78 446.17C25.2467 446.17 25.5934 445.977 25.82 445.59C26.0467 445.19 26.2134 444.677 26.32 444.05C26.4134 443.41 26.4734 442.683 26.5 441.87C26.5267 441.043 26.5734 440.21 26.64 439.37C26.6934 438.517 26.8 437.683 26.96 436.87C27.1067 436.043 27.3534 435.317 27.7 434.69C28.0334 434.05 28.5 433.537 29.1 433.15C29.6867 432.75 30.4534 432.55 31.4 432.55C32.28 432.55 33.1334 432.77 33.96 433.21C34.7867 433.637 35.52 434.263 36.16 435.09C36.8 435.917 37.3134 436.923 37.7 438.11C38.0867 439.297 38.28 440.643 38.28 442.15C38.28 443.657 38.1334 444.97 37.84 446.09C37.5467 447.197 37.1534 448.123 36.66 448.87C36.1667 449.603 35.5934 450.157 34.94 450.53C34.2867 450.89 33.6067 451.07 32.9 451.07C31.9134 451.07 31.08 450.763 30.4 450.15C29.7067 449.537 29.1667 448.69 28.78 447.61C28.5134 448.197 28.1534 448.663 27.7 449.01C27.2334 449.357 26.62 449.53 25.86 449.53C25.5667 449.53 25.2667 449.477 24.96 449.37C24.64 449.263 24.3267 449.103 24.02 448.89C23.7 448.663 23.4 448.39 23.12 448.07C22.84 447.737 22.5867 447.357 22.36 446.93C21.8 447.93 21.06 448.717 20.14 449.29C19.2067 449.863 18.12 450.15 16.88 450.15C15.88 450.15 14.98 449.957 14.18 449.57C13.38 449.183 12.6934 448.65 12.12 447.97C11.5467 447.277 11.1067 446.457 10.8 445.51C10.4934 444.55 10.34 443.503 10.34 442.37C10.34 440.61 10.7067 439.097 11.44 437.83L11.44 432.19ZM10.68 424.532L31 424.532L31 428.432L10.68 428.432L10.68 424.532ZM4.40005 423.792C4.76005 423.792 5.10671 423.865 5.44005 424.012C5.76005 424.158 6.04671 424.358 6.30005 424.612C6.54005 424.852 6.73338 425.138 6.88005 425.472C7.01338 425.805 7.08005 426.152 7.08005 426.512C7.08005 426.872 7.01338 427.212 6.88005 427.532C6.73338 427.852 6.54005 428.138 6.30005 428.392C6.04671 428.632 5.76005 428.825 5.44005 428.972C5.10671 429.105 4.76005 429.172 4.40005 429.172C4.02671 429.172 3.68005 429.105 3.36005 428.972C3.02671 428.825 2.74005 428.632 2.50005 428.392C2.24671 428.138 2.05338 427.852 1.92005 427.532C1.77338 427.212 1.70005 426.872 1.70005 426.512C1.70005 426.152 1.77338 425.805 1.92005 425.472C2.05338 425.138 2.24671 424.852 2.50005 424.612C2.74005 424.358 3.02671 424.158 3.36005 424.012C3.68005 423.865 4.02671 423.792 4.40005 423.792ZM1.48005 414.885L31 414.885L31 418.805L1.48005 418.805L1.48005 414.885ZM18.58 395.855C17.8067 395.855 17.0934 395.968 16.44 396.195C15.7867 396.408 15.22 396.728 14.74 397.155C14.26 397.581 13.8867 398.101 13.62 398.715C13.3534 399.328 13.22 400.035 13.22 400.835C13.22 402.475 13.6934 403.768 14.64 404.715C15.5867 405.648 16.9 406.241 18.58 406.495L18.58 395.855ZM28.1 392.635C28.66 393.115 29.1467 393.668 29.56 394.295C29.96 394.921 30.2867 395.588 30.54 396.295C30.7934 397.001 30.98 397.735 31.1 398.495C31.22 399.241 31.28 399.981 31.28 400.715C31.28 402.115 31.0467 403.415 30.58 404.615C30.1 405.801 29.4067 406.835 28.5 407.715C27.58 408.581 26.4467 409.261 25.1 409.755C23.74 410.235 22.18 410.475 20.42 410.475C19.0067 410.475 17.6934 410.255 16.48 409.815C15.2534 409.375 14.1867 408.748 13.28 407.935C12.3734 407.108 11.66 406.101 11.14 404.915C10.62 403.728 10.36 402.395 10.36 400.915C10.36 399.675 10.5667 398.535 10.98 397.495C11.38 396.441 11.9667 395.535 12.74 394.775C13.5134 394.015 14.4667 393.421 15.6 392.995C16.7334 392.555 18.0267 392.335 19.48 392.335C20.08 392.335 20.4867 392.401 20.7 392.535C20.9 392.668 21 392.915 21 393.275L21 406.595C22.2134 406.555 23.2734 406.381 24.18 406.075C25.0734 405.768 25.82 405.348 26.42 404.815C27.02 404.268 27.4667 403.621 27.76 402.875C28.0534 402.128 28.2 401.295 28.2 400.375C28.2 399.508 28.1 398.761 27.9 398.135C27.7 397.495 27.4867 396.948 27.26 396.495C27.02 396.028 26.8 395.641 26.6 395.335C26.4 395.015 26.3 394.735 26.3 394.495C26.3 394.175 26.42 393.928 26.66 393.755L28.1 392.635ZM13.26 374.126C12.3934 373.272 11.6934 372.332 11.16 371.306C10.6267 370.266 10.36 369.072 10.36 367.726C10.36 366.606 10.5467 365.626 10.92 364.786C11.2934 363.932 11.82 363.219 12.5 362.646C13.1667 362.072 13.9734 361.639 14.92 361.346C15.8667 361.052 16.9134 360.906 18.06 360.906L31 360.906L31 364.826L18.06 364.826C16.6067 364.826 15.48 365.159 14.68 365.826C13.8667 366.492 13.46 367.512 13.46 368.886C13.46 369.886 13.7 370.826 14.18 371.706C14.6467 372.572 15.2867 373.379 16.1 374.126L31 374.126L31 378.026L1.48004 378.026L1.48004 374.126L13.26 374.126ZM21.98 344.723C22.0334 346.309 22.16 347.656 22.36 348.763C22.5467 349.869 22.8 350.769 23.12 351.463C23.44 352.156 23.82 352.656 24.26 352.963C24.6867 353.269 25.1667 353.423 25.7 353.423C26.2067 353.423 26.6467 353.343 27.02 353.183C27.38 353.009 27.68 352.783 27.92 352.503C28.1467 352.209 28.3134 351.869 28.42 351.483C28.5267 351.096 28.58 350.676 28.58 350.223C28.58 349.623 28.52 349.076 28.4 348.583C28.28 348.076 28.1134 347.603 27.9 347.163C27.6734 346.723 27.4 346.303 27.08 345.903C26.76 345.503 26.3934 345.109 25.98 344.723L21.98 344.723ZM13.52 356.163C12.44 355.029 11.6334 353.803 11.1 352.483C10.5667 351.149 10.3 349.689 10.3 348.103C10.3 346.943 10.4934 345.916 10.88 345.023C11.2534 344.129 11.78 343.376 12.46 342.763C13.14 342.149 13.9534 341.689 14.9 341.383C15.8467 341.063 16.8934 340.903 18.04 340.903L31 340.903L31 342.643C31 343.029 30.94 343.323 30.82 343.523C30.6867 343.723 30.4467 343.883 30.1 344.003L28.32 344.423C28.8 344.943 29.2267 345.456 29.6 345.963C29.96 346.469 30.2734 347.003 30.54 347.563C30.7934 348.109 30.9867 348.696 31.12 349.323C31.2534 349.949 31.32 350.643 31.32 351.403C31.32 352.203 31.2134 352.956 31 353.663C30.7734 354.356 30.4334 354.963 29.98 355.483C29.5267 356.003 28.96 356.416 28.28 356.723C27.6 357.016 26.8067 357.163 25.9 357.163C25.1 357.163 24.3334 356.949 23.6 356.523C22.8534 356.083 22.1867 355.376 21.6 354.403C21.0134 353.416 20.5334 352.136 20.16 350.563C19.7867 348.976 19.5734 347.029 19.52 344.723L18.04 344.723C16.5067 344.723 15.36 345.049 14.6 345.703C13.84 346.356 13.46 347.316 13.46 348.583C13.46 349.436 13.5667 350.156 13.78 350.743C13.9934 351.316 14.2334 351.816 14.5 352.243C14.7534 352.656 14.9867 353.023 15.2 353.343C15.4134 353.649 15.52 353.969 15.52 354.303C15.52 354.569 15.4467 354.803 15.3 355.003C15.1534 355.189 14.98 355.343 14.78 355.463L13.52 356.163ZM13.5 332.022C13.0334 331.582 12.6067 331.122 12.22 330.642C11.8334 330.162 11.5067 329.655 11.24 329.122C10.96 328.575 10.7467 327.995 10.6 327.382C10.44 326.755 10.36 326.089 10.36 325.382C10.36 324.262 10.5467 323.282 10.92 322.442C11.2934 321.589 11.82 320.875 12.5 320.302C13.1667 319.729 13.9734 319.295 14.92 319.002C15.8667 318.709 16.9134 318.562 18.06 318.562L31 318.562L31 322.482L18.06 322.482C16.6067 322.482 15.48 322.815 14.68 323.482C13.8667 324.149 13.46 325.169 13.46 326.542C13.46 327.542 13.7 328.482 14.18 329.362C14.6467 330.229 15.2867 331.035 16.1 331.782L31 331.782L31 335.682L10.68 335.682L10.68 333.342C10.68 332.795 10.94 332.455 11.46 332.322L13.5 332.022ZM15.6 300.199C14.76 300.839 14.1734 301.532 13.84 302.279C13.5067 303.012 13.34 303.839 13.34 304.759C13.34 306.546 13.9867 307.932 15.28 308.919C16.56 309.892 18.4334 310.379 20.9 310.379C22.1934 310.379 23.3 310.272 24.22 310.059C25.1267 309.832 25.8734 309.512 26.46 309.099C27.0334 308.672 27.46 308.152 27.74 307.539C28.0067 306.926 28.14 306.232 28.14 305.459C28.14 304.326 27.8867 303.346 27.38 302.519C26.8734 301.692 26.16 300.919 25.24 300.199L15.6 300.199ZM1.48004 296.279L31 296.279L31 298.639C31 299.186 30.74 299.526 30.22 299.659L27.88 299.999C28.9067 300.866 29.7334 301.852 30.36 302.959C30.9734 304.052 31.28 305.319 31.28 306.759C31.28 307.919 31.0534 308.972 30.6 309.919C30.1467 310.852 29.4867 311.652 28.62 312.319C27.74 312.986 26.6534 313.499 25.36 313.859C24.0667 314.219 22.58 314.399 20.9 314.399C19.3934 314.399 17.9934 314.199 16.7 313.799C15.4067 313.399 14.2867 312.819 13.34 312.059C12.3934 311.299 11.6534 310.379 11.12 309.299C10.5734 308.219 10.3 306.999 10.3 305.639C10.3 304.412 10.5 303.372 10.9 302.519C11.3 301.652 11.8667 300.879 12.6 300.199L1.48004 300.199L1.48004 296.279ZM14.18 278.858C14.3534 278.965 14.48 279.078 14.56 279.198C14.6267 279.318 14.66 279.471 14.66 279.658C14.66 279.871 14.5867 280.111 14.44 280.378C14.2934 280.631 14.1334 280.945 13.96 281.318C13.7867 281.678 13.6267 282.105 13.48 282.598C13.3334 283.091 13.26 283.678 13.26 284.358C13.26 284.918 13.3334 285.431 13.48 285.898C13.6134 286.351 13.8067 286.738 14.06 287.058C14.3 287.378 14.5934 287.625 14.94 287.798C15.2734 287.971 15.6334 288.058 16.02 288.058C16.5267 288.058 16.9467 287.911 17.28 287.618C17.6134 287.311 17.9 286.918 18.14 286.438C18.38 285.945 18.6 285.391 18.8 284.778C18.9867 284.151 19.1867 283.518 19.4 282.878C19.6134 282.225 19.86 281.591 20.14 280.978C20.4067 280.351 20.7467 279.798 21.16 279.318C21.56 278.825 22.0467 278.431 22.62 278.138C23.1934 277.831 23.8934 277.678 24.72 277.678C25.6667 277.678 26.5467 277.851 27.36 278.198C28.16 278.531 28.8534 279.031 29.44 279.698C30.0267 280.351 30.4867 281.165 30.82 282.138C31.1534 283.111 31.32 284.225 31.32 285.478C31.32 286.878 31.0867 288.171 30.62 289.358C30.1534 290.545 29.56 291.538 28.84 292.338L27.34 291.418C27.1534 291.311 27.0134 291.178 26.92 291.018C26.8134 290.858 26.76 290.645 26.76 290.378C26.76 290.125 26.8534 289.865 27.04 289.598C27.2267 289.331 27.4334 289.011 27.66 288.638C27.8734 288.265 28.0734 287.811 28.26 287.278C28.4334 286.745 28.52 286.078 28.52 285.278C28.52 284.611 28.44 284.031 28.28 283.538C28.1067 283.045 27.88 282.638 27.6 282.318C27.3067 281.985 26.9734 281.738 26.6 281.578C26.2267 281.418 25.8334 281.338 25.42 281.338C24.8867 281.338 24.4467 281.491 24.1 281.798C23.74 282.091 23.4334 282.485 23.18 282.978C22.9267 283.458 22.7067 284.011 22.52 284.638C22.3334 285.265 22.1334 285.905 21.92 286.558C21.7067 287.211 21.46 287.851 21.18 288.478C20.9 289.105 20.5467 289.665 20.12 290.158C19.6934 290.638 19.1734 291.031 18.56 291.338C17.9467 291.631 17.2 291.778 16.32 291.778C15.5334 291.778 14.78 291.618 14.06 291.298C13.34 290.965 12.7067 290.491 12.16 289.878C11.6134 289.251 11.18 288.485 10.86 287.578C10.5267 286.658 10.36 285.611 10.36 284.438C10.36 283.091 10.5734 281.878 11 280.798C11.4267 279.705 12.0134 278.771 12.76 277.998L14.18 278.858ZM21.98 252.418C22.0334 254.005 22.16 255.351 22.36 256.458C22.5467 257.565 22.8 258.465 23.12 259.158C23.44 259.851 23.82 260.351 24.26 260.658C24.6867 260.965 25.1667 261.118 25.7 261.118C26.2067 261.118 26.6467 261.038 27.02 260.878C27.38 260.705 27.68 260.478 27.92 260.198C28.1467 259.905 28.3134 259.565 28.42 259.178C28.5267 258.791 28.58 258.371 28.58 257.918C28.58 257.318 28.52 256.771 28.4 256.278C28.28 255.771 28.1134 255.298 27.9 254.858C27.6734 254.418 27.4 253.998 27.08 253.598C26.76 253.198 26.3934 252.805 25.98 252.418L21.98 252.418ZM13.52 263.858C12.44 262.725 11.6334 261.498 11.1 260.178C10.5667 258.845 10.3 257.385 10.3 255.798C10.3 254.638 10.4934 253.611 10.88 252.718C11.2534 251.825 11.78 251.071 12.46 250.458C13.14 249.845 13.9534 249.385 14.9 249.078C15.8467 248.758 16.8934 248.598 18.04 248.598L31 248.598L31 250.338C31 250.725 30.94 251.018 30.82 251.218C30.6867 251.418 30.4467 251.578 30.1 251.698L28.32 252.118C28.8 252.638 29.2267 253.151 29.6 253.658C29.96 254.165 30.2734 254.698 30.54 255.258C30.7934 255.805 30.9867 256.391 31.12 257.018C31.2534 257.645 31.32 258.338 31.32 259.098C31.32 259.898 31.2134 260.651 31 261.358C30.7734 262.051 30.4334 262.658 29.98 263.178C29.5267 263.698 28.96 264.111 28.28 264.418C27.6 264.711 26.8067 264.858 25.9 264.858C25.1 264.858 24.3334 264.645 23.6 264.218C22.8534 263.778 22.1867 263.071 21.6 262.098C21.0134 261.111 20.5334 259.831 20.16 258.258C19.7867 256.671 19.5734 254.725 19.52 252.418L18.04 252.418C16.5067 252.418 15.36 252.745 14.6 253.398C13.84 254.051 13.46 255.011 13.46 256.278C13.46 257.131 13.5667 257.851 13.78 258.438C13.9934 259.011 14.2334 259.511 14.5 259.938C14.7534 260.351 14.9867 260.718 15.2 261.038C15.4134 261.345 15.52 261.665 15.52 261.998C15.52 262.265 15.4467 262.498 15.3 262.698C15.1534 262.885 14.98 263.038 14.78 263.158L13.52 263.858ZM13.5 239.717C13.0334 239.277 12.6067 238.817 12.22 238.337C11.8334 237.857 11.5067 237.351 11.24 236.817C10.96 236.271 10.7467 235.691 10.6 235.077C10.44 234.451 10.36 233.784 10.36 233.077C10.36 231.957 10.5467 230.977 10.92 230.137C11.2934 229.284 11.82 228.571 12.5 227.997C13.1667 227.424 13.9734 226.991 14.92 226.697C15.8667 226.404 16.9134 226.257 18.06 226.257L31 226.257L31 230.177L18.06 230.177C16.6067 230.177 15.48 230.511 14.68 231.177C13.8667 231.844 13.46 232.864 13.46 234.237C13.46 235.237 13.7 236.177 14.18 237.057C14.6467 237.924 15.2867 238.731 16.1 239.477L31 239.477L31 243.377L10.68 243.377L10.68 241.037C10.68 240.491 10.94 240.151 11.46 240.017L13.5 239.717ZM15.6 207.894C14.76 208.534 14.1734 209.228 13.84 209.974C13.5067 210.708 13.34 211.534 13.34 212.454C13.34 214.241 13.9867 215.628 15.28 216.614C16.56 217.588 18.4334 218.074 20.9 218.074C22.1934 218.074 23.3 217.968 24.22 217.754C25.1267 217.528 25.8734 217.208 26.46 216.794C27.0334 216.368 27.46 215.848 27.74 215.234C28.0067 214.621 28.14 213.928 28.14 213.154C28.14 212.021 27.8867 211.041 27.38 210.214C26.8734 209.388 26.16 208.614 25.24 207.894L15.6 207.894ZM1.48004 203.974L31 203.974L31 206.334C31 206.881 30.74 207.221 30.22 207.354L27.88 207.694C28.9067 208.561 29.7334 209.548 30.36 210.654C30.9734 211.748 31.28 213.014 31.28 214.454C31.28 215.614 31.0534 216.668 30.6 217.614C30.1467 218.548 29.4867 219.348 28.62 220.014C27.74 220.681 26.6534 221.194 25.36 221.554C24.0667 221.914 22.58 222.094 20.9 222.094C19.3934 222.094 17.9934 221.894 16.7 221.494C15.4067 221.094 14.2867 220.514 13.34 219.754C12.3934 218.994 11.6534 218.074 11.12 216.994C10.5734 215.914 10.3 214.694 10.3 213.334C10.3 212.108 10.5 211.068 10.9 210.214C11.3 209.348 11.8667 208.574 12.6 207.894L1.48004 207.894L1.48004 203.974ZM21.98 177.496C22.0334 179.083 22.16 180.43 22.36 181.536C22.5467 182.643 22.8 183.543 23.12 184.236C23.44 184.93 23.82 185.43 24.26 185.736C24.6867 186.043 25.1667 186.196 25.7 186.196C26.2067 186.196 26.6467 186.116 27.02 185.956C27.38 185.783 27.68 185.556 27.92 185.276C28.1467 184.983 28.3134 184.643 28.42 184.256C28.5267 183.87 28.58 183.45 28.58 182.996C28.58 182.396 28.52 181.85 28.4 181.356C28.28 180.85 28.1134 180.376 27.9 179.936C27.6734 179.496 27.4 179.076 27.08 178.676C26.76 178.276 26.3934 177.883 25.98 177.496L21.98 177.496ZM13.52 188.936C12.44 187.803 11.6334 186.576 11.1 185.256C10.5667 183.923 10.3 182.463 10.3 180.876C10.3 179.716 10.4934 178.69 10.88 177.796C11.2534 176.903 11.78 176.15 12.46 175.536C13.14 174.923 13.9534 174.463 14.9 174.156C15.8467 173.836 16.8934 173.676 18.04 173.676L31 173.676L31 175.416C31 175.803 30.94 176.096 30.82 176.296C30.6867 176.496 30.4467 176.656 30.1 176.776L28.32 177.196C28.8 177.716 29.2267 178.23 29.6 178.736C29.96 179.243 30.2734 179.776 30.54 180.336C30.7934 180.883 30.9867 181.47 31.12 182.096C31.2534 182.723 31.32 183.416 31.32 184.176C31.32 184.976 31.2134 185.73 31 186.436C30.7734 187.13 30.4334 187.736 29.98 188.256C29.5267 188.776 28.96 189.19 28.28 189.496C27.6 189.79 26.8067 189.936 25.9 189.936C25.1 189.936 24.3334 189.723 23.6 189.296C22.8534 188.856 22.1867 188.15 21.6 187.176C21.0134 186.19 20.5334 184.91 20.16 183.336C19.7867 181.75 19.5734 179.803 19.52 177.496L18.04 177.496C16.5067 177.496 15.36 177.823 14.6 178.476C13.84 179.13 13.46 180.09 13.46 181.356C13.46 182.21 13.5667 182.93 13.78 183.516C13.9934 184.09 14.2334 184.59 14.5 185.016C14.7534 185.43 14.9867 185.796 15.2 186.116C15.4134 186.423 15.52 186.743 15.52 187.076C15.52 187.343 15.4467 187.576 15.3 187.776C15.1534 187.963 14.98 188.116 14.78 188.236L13.52 188.936ZM1.48004 164.455L31 164.455L31 168.375L1.48004 168.375L1.48004 164.455ZM18.58 145.425C17.8067 145.425 17.0934 145.538 16.44 145.765C15.7867 145.978 15.22 146.298 14.74 146.725C14.26 147.152 13.8867 147.672 13.62 148.285C13.3534 148.898 13.22 149.605 13.22 150.405C13.22 152.045 13.6934 153.338 14.64 154.285C15.5867 155.218 16.9 155.812 18.58 156.065L18.58 145.425ZM28.1 142.205C28.66 142.685 29.1467 143.238 29.56 143.865C29.96 144.492 30.2867 145.158 30.54 145.865C30.7934 146.572 30.98 147.305 31.1 148.065C31.22 148.812 31.28 149.552 31.28 150.285C31.28 151.685 31.0467 152.985 30.58 154.185C30.1 155.372 29.4067 156.405 28.5 157.285C27.58 158.152 26.4467 158.832 25.1 159.325C23.74 159.805 22.18 160.045 20.42 160.045C19.0067 160.045 17.6934 159.825 16.48 159.385C15.2534 158.945 14.1867 158.318 13.28 157.505C12.3734 156.678 11.66 155.672 11.14 154.485C10.62 153.298 10.36 151.965 10.36 150.485C10.36 149.245 10.5667 148.105 10.98 147.065C11.38 146.012 11.9667 145.105 12.74 144.345C13.5134 143.585 14.4667 142.992 15.6 142.565C16.7334 142.125 18.0267 141.905 19.48 141.905C20.08 141.905 20.4867 141.972 20.7 142.105C20.9 142.238 21 142.485 21 142.845L21 156.165C22.2134 156.125 23.2734 155.952 24.18 155.645C25.0734 155.338 25.82 154.918 26.42 154.385C27.02 153.838 27.4667 153.192 27.76 152.445C28.0534 151.698 28.2 150.865 28.2 149.945C28.2 149.078 28.1 148.332 27.9 147.705C27.7 147.065 27.4867 146.518 27.26 146.065C27.02 145.598 26.8 145.212 26.6 144.905C26.4 144.585 26.3 144.305 26.3 144.065C26.3 143.745 26.42 143.498 26.66 143.325L28.1 142.205ZM14.58 134.033C13.2467 133.38 12.2 132.593 11.44 131.673C10.68 130.753 10.3 129.646 10.3 128.353C10.3 127.913 10.3534 127.5 10.46 127.113C10.5534 126.713 10.7 126.366 10.9 126.073L13.84 126.333C14.2 126.426 14.38 126.646 14.38 126.993C14.38 127.18 14.3467 127.46 14.28 127.833C14.2 128.206 14.16 128.606 14.16 129.033C14.16 129.66 14.2534 130.213 14.44 130.693C14.6134 131.173 14.88 131.606 15.24 131.993C15.5867 132.366 16.02 132.7 16.54 132.993C17.0467 133.286 17.6267 133.56 18.28 133.813L31 133.813L31 137.713L10.68 137.713L10.68 135.473C10.68 135.046 10.76 134.76 10.92 134.613C11.0667 134.453 11.3334 134.34 11.72 134.273L14.58 134.033ZM31.32 116.705C31.32 118.345 30.86 119.611 29.94 120.505C29.02 121.385 27.7067 121.825 26 121.825L13.84 121.825L13.84 124.185C13.84 124.411 13.7734 124.605 13.64 124.765C13.4934 124.911 13.28 124.985 13 124.985L11.42 124.985L10.96 121.685L4.90003 120.805C4.67337 120.751 4.50003 120.651 4.38003 120.505C4.2467 120.345 4.18003 120.145 4.18003 119.905L4.18003 117.925L11 117.925L11 112.165L13.84 112.165L13.84 117.925L25.74 117.925C26.54 117.925 27.14 117.731 27.54 117.345C27.9267 116.945 28.12 116.438 28.12 115.825C28.12 115.465 28.0734 115.158 27.98 114.905C27.8867 114.638 27.7867 114.411 27.68 114.225C27.56 114.038 27.4534 113.878 27.36 113.745C27.2667 113.611 27.22 113.491 27.22 113.385C27.22 113.251 27.2534 113.151 27.32 113.085C27.3734 113.005 27.4667 112.925 27.6 112.845L29.48 111.685C30.0667 112.325 30.52 113.085 30.84 113.965C31.16 114.845 31.32 115.758 31.32 116.705ZM31 98.4553L10.68 98.4553L10.68 96.1153C10.68 95.5686 10.94 95.2286 11.46 95.0953L13.4 94.8153C12.5067 94.0686 11.78 93.242 11.22 92.3353C10.6467 91.4153 10.36 90.342 10.36 89.1153C10.36 87.7686 10.7334 86.6753 11.48 85.8353C12.2134 84.9953 13.2134 84.382 14.48 83.9953C13.76 83.702 13.14 83.322 12.62 82.8553C12.1 82.3886 11.6734 81.8686 11.34 81.2953C11.0067 80.722 10.76 80.1153 10.6 79.4753C10.44 78.822 10.36 78.162 10.36 77.4953C10.36 76.4153 10.5334 75.4553 10.88 74.6153C11.2134 73.762 11.7067 73.042 12.36 72.4553C13.0134 71.8686 13.82 71.422 14.78 71.1153C15.74 70.8086 16.8334 70.6553 18.06 70.6553L31 70.6553L31 74.5753L18.06 74.5753C16.54 74.5753 15.3934 74.9086 14.62 75.5753C13.8467 76.2286 13.46 77.1886 13.46 78.4553C13.46 79.0153 13.56 79.5486 13.76 80.0553C13.9467 80.562 14.2334 81.0086 14.62 81.3953C15.0067 81.7686 15.4867 82.0686 16.06 82.2953C16.6334 82.5086 17.3 82.6153 18.06 82.6153L31 82.6153L31 86.5353L18.06 86.5353C16.4867 86.5353 15.3267 86.8486 14.58 87.4753C13.8334 88.102 13.46 89.022 13.46 90.2353C13.46 91.0753 13.68 91.8553 14.12 92.5753C14.56 93.2953 15.16 93.9553 15.92 94.5553L31 94.5553L31 98.4553ZM10.68 61.3284L31 61.3284L31 65.2284L10.68 65.2284L10.68 61.3284ZM4.40003 60.5884C4.76003 60.5884 5.1067 60.6618 5.44003 60.8084C5.76003 60.9551 6.0467 61.1551 6.30003 61.4084C6.54003 61.6484 6.73337 61.9351 6.88003 62.2684C7.01336 62.6018 7.08003 62.9484 7.08003 63.3084C7.08003 63.6684 7.01336 64.0084 6.88003 64.3284C6.73337 64.6484 6.54003 64.9351 6.30003 65.1884C6.0467 65.4284 5.76003 65.6218 5.44003 65.7684C5.1067 65.9018 4.76003 65.9684 4.40003 65.9684C4.0267 65.9684 3.68003 65.9018 3.36003 65.7684C3.0267 65.6218 2.74003 65.4284 2.50003 65.1884C2.2467 64.9351 2.05336 64.6484 1.92003 64.3284C1.77336 64.0084 1.70003 63.6684 1.70003 63.3084C1.70003 62.9484 1.77336 62.6018 1.92003 62.2684C2.05336 61.9351 2.2467 61.6484 2.50003 61.4084C2.74003 61.1551 3.0267 60.9551 3.36003 60.8084C3.68003 60.6618 4.0267 60.5884 4.40003 60.5884ZM13.5 52.0219C13.0334 51.5819 12.6067 51.1219 12.22 50.6419C11.8334 50.1619 11.5067 49.6552 11.24 49.1219C10.96 48.5752 10.7467 47.9952 10.6 47.3819C10.44 46.7552 10.36 46.0885 10.36 45.3819C10.36 44.2619 10.5467 43.2819 10.92 42.4419C11.2934 41.5885 11.82 40.8752 12.5 40.3019C13.1667 39.7285 13.9734 39.2952 14.92 39.0019C15.8667 38.7085 16.9134 38.5619 18.06 38.5619L31 38.5619L31 42.4819L18.06 42.4819C16.6067 42.4819 15.48 42.8152 14.68 43.4819C13.8667 44.1485 13.46 45.1685 13.46 46.5419C13.46 47.5419 13.7 48.4819 14.18 49.3619C14.6467 50.2285 15.2867 51.0352 16.1 51.7819L31 51.7819L31 55.6819L10.68 55.6819L10.68 53.3419C10.68 52.7952 10.94 52.4552 11.46 52.3219L13.5 52.0219ZM15.6 20.1991C14.76 20.8391 14.1734 21.5324 13.84 22.2791C13.5067 23.0124 13.34 23.8391 13.34 24.7591C13.34 26.5457 13.9867 27.9324 15.28 28.9191C16.56 29.8924 18.4334 30.3791 20.9 30.3791C22.1934 30.3791 23.3 30.2724 24.22 30.0591C25.1267 29.8324 25.8734 29.5124 26.46 29.0991C27.0334 28.6724 27.46 28.1524 27.74 27.5391C28.0067 26.9257 28.14 26.2324 28.14 25.4591C28.14 24.3257 27.8867 23.3457 27.38 22.5191C26.8734 21.6924 26.16 20.9191 25.24 20.1991L15.6 20.1991ZM1.48003 16.2791L31 16.2791L31 18.6391C31 19.1857 30.74 19.5257 30.22 19.6591L27.88 19.9991C28.9067 20.8657 29.7334 21.8524 30.36 22.9591C30.9734 24.0524 31.28 25.3191 31.28 26.7591C31.28 27.9191 31.0534 28.9724 30.6 29.9191C30.1467 30.8524 29.4867 31.6524 28.62 32.3191C27.74 32.9857 26.6534 33.4991 25.36 33.8591C24.0667 34.2191 22.58 34.3991 20.9 34.3991C19.3934 34.3991 17.9934 34.1991 16.7 33.7991C15.4067 33.3991 14.2867 32.8191 13.34 32.0591C12.3934 31.2991 11.6534 30.3791 11.12 29.2991C10.5734 28.2191 10.3 26.9991 10.3 25.6391C10.3 24.4124 10.5 23.3724 10.9 22.5191C11.3 21.6524 11.8667 20.8791 12.6 20.1991L1.48003 20.1991L1.48003 16.2791ZM0.360029 8.17812C1.33336 7.59146 2.36003 7.19812 3.44003 6.99812C4.5067 6.78479 5.56669 6.75812 6.62003 6.91812C7.66003 7.07812 8.6667 7.42479 9.64003 7.95812C10.6 8.49146 11.46 9.19812 12.22 10.0781L11.46 11.2781C11.3134 11.5048 11.14 11.6048 10.94 11.5781C10.7267 11.5515 10.56 11.4781 10.44 11.3581C10.04 11.0248 9.5467 10.7381 8.96003 10.4981C8.36003 10.2448 7.71336 10.0781 7.02003 9.99812C6.31336 9.91812 5.5867 9.94479 4.84003 10.0781C4.09336 10.2115 3.36003 10.4915 2.64003 10.9181C2.33336 11.1048 2.06003 11.1581 1.82003 11.0781C1.58003 10.9981 1.4067 10.8248 1.30003 10.5581L0.360029 8.17812ZM0.360029 1.95812C1.33336 1.37146 2.36003 0.978124 3.44003 0.778124C4.50669 0.564791 5.56669 0.538124 6.62003 0.698123C7.66003 0.858124 8.6667 1.20479 9.64003 1.73812C10.6 2.27146 11.46 2.97812 12.22 3.85812L11.46 5.05812C11.3134 5.28479 11.14 5.38479 10.94 5.35812C10.7267 5.33146 10.56 5.25812 10.44 5.13812C10.04 4.80479 9.5467 4.51812 8.96003 4.27812C8.36003 4.02479 7.71336 3.85812 7.02003 3.77812C6.31336 3.69812 5.58669 3.72479 4.84003 3.85812C4.09336 3.99146 3.36003 4.27146 2.64003 4.69812C2.33336 4.88479 2.06003 4.93812 1.82003 4.85812C1.58003 4.77812 1.40669 4.60479 1.30003 4.33812L0.360029 1.95812Z" fill="#070056"/>
</svg>
